<?xml version="1.0" encoding="utf-8"?>
<!-- Generator: Adobe Illustrator 16.0.0, SVG Export Plug-In . SVG Version: 6.00 Build 0)  -->
<!DOCTYPE svg PUBLIC "-//W3C//DTD SVG 1.1//EN" "http://www.w3.org/Graphics/SVG/1.1/DTD/svg11.dtd">
<svg version="1.1" id="Layer_1" xmlns="http://www.w3.org/2000/svg" xmlns:xlink="http://www.w3.org/1999/xlink" x="0px" y="0px"
	 width="992.129px" height="595.281px" viewBox="0 0 992.129 595.281" enable-background="new 0 0 992.129 595.281"
	 xml:space="preserve">
<path d="M593.317,434.175H364.178c-20.388,0-36.907,16.52-36.907,36.893v20.002c0,20.373,16.52,36.893,36.907,36.893h229.139
	c20.389,0,36.907-16.52,36.907-36.893v-20.002C630.224,450.694,613.69,434.175,593.317,434.175z"/>
<path d="M437.219,115.373V88.005c-14.956,2.753-25.062,5.581-25.062,5.581l15.82,24.392
	C430.895,117.039,433.886,116.132,437.219,115.373z"/>
<path d="M592.17,253.091v144.103h31.015c0,0,0-80.17,0-177.036c0-96.867-61.701-128.03-112.151-135.516
	c-5.298-0.789-10.774-1.235-16.28-1.459c11.34,11.072,17.754,23.098,21.191,31.625C592.17,133.156,592.17,216.883,592.17,253.091z"
	/>
<path d="M367.705,301.383c63.755-25.225,68.755-25.225,68.755-25.225l-63.441,148.79h209.91c0,0,0-130.337,0-171.857
	c0-37.637,0-116.05-73.904-130.366c-4.732-14.376-19.614-44.943-62.563-55.406v55.659c-54.722,8.974-47.504,40.926-94.084,81.151
	l-29.169,16.162c-18.885,10.462-25.701,34.258-15.239,53.113l6.623,12.725C325.054,305.013,344.251,310.669,367.705,301.383z
	 M423.811,166.864c7.619-3.884,16.459-2.708,22.754,2.232c0.283,8.007-4.003,15.85-11.622,19.719
	c-7.62,3.869-16.46,2.709-22.77-2.247C411.905,178.561,416.191,170.733,423.811,166.864z"/>
</svg>
