<?xml version="1.0" encoding="utf-8"?>
<!-- Generator: Adobe Illustrator 16.0.0, SVG Export Plug-In . SVG Version: 6.00 Build 0)  -->
<!DOCTYPE svg PUBLIC "-//W3C//DTD SVG 1.1//EN" "http://www.w3.org/Graphics/SVG/1.1/DTD/svg11.dtd">
<svg version="1.1"
	 id="Layer_1" xmlns:dc="http://purl.org/dc/elements/1.1/" xmlns:cc="http://creativecommons.org/ns#" xmlns:svg="http://www.w3.org/2000/svg" xmlns:sodipodi="http://sodipodi.sourceforge.net/DTD/sodipodi-0.dtd" xmlns:rdf="http://www.w3.org/1999/02/22-rdf-syntax-ns#" xmlns:inkscape="http://www.inkscape.org/namespaces/inkscape"
	 xmlns="http://www.w3.org/2000/svg" xmlns:xlink="http://www.w3.org/1999/xlink" x="0px" y="0px" width="992.129px"
	 height="595.281px" viewBox="0 0 992.129 595.281" enable-background="new 0 0 992.129 595.281" xml:space="preserve">
<g transform="translate(0,-952.36218)">
	<path d="M176.049,1005.283c-11.1,0-21.289,3.335-30.001,8.824l322.369,281.485c17.035,14.881,37.647,14.881,54.709,0
		l322.957-281.78c-8.682-5.433-18.961-8.529-30.001-8.529H176.049z M122.81,1043.521c-1.955,5.742-3.235,11.816-3.235,18.236v376.49
		c0,31.287,25.188,56.475,56.473,56.475h640.033c31.287,0,56.473-25.188,56.473-56.475v-376.49c0-6.42-1.277-12.496-3.235-18.236
		l-321.486,280.602c-29.951,26.122-74.18,25.867-104.124-0.293L122.81,1043.523V1043.521z"/>
</g>
</svg>
